<?xml version="1.0" standalone="no"?>
<!DOCTYPE svg PUBLIC "-//W3C//DTD SVG 20010904//EN"
 "http://www.w3.org/TR/2001/REC-SVG-20010904/DTD/svg10.dtd">
<svg version="1.0" xmlns="http://www.w3.org/2000/svg"
 width="1228.000000pt" height="1280.000000pt" viewBox="0 0 1228.000000 1280.000000"
 preserveAspectRatio="xMidYMid meet">
<g transform="translate(0.000000,1280.000000) scale(0.100000,-0.100000)"
fill="#000000" stroke="none">
<path d="M5600 5333 c-1284 -35 -2340 -158 -3031 -354 -378 -106 -639 -249
-683 -372 -47 -133 -17 -685 59 -1058 72 -353 202 -721 358 -1009 91 -168 240
-387 364 -534 129 -153 129 -153 120 -162 -3 -4 -75 -11 -159 -15 -1229 -65
-1913 -145 -2308 -271 -171 -55 -262 -110 -301 -183 -23 -42 -23 -45 -7 -79
22 -45 80 -110 125 -137 19 -12 39 -32 44 -46 12 -34 95 -69 379 -164 518
-172 1159 -335 1928 -488 891 -179 1737 -282 2797 -343 293 -17 1397 -17 1695
0 1211 68 2088 189 3260 449 503 111 1189 297 1548 419 312 107 316 108 320
133 2 11 18 29 36 41 46 28 109 98 126 139 12 31 12 37 -10 77 -63 120 -291
207 -740 283 -368 62 -613 88 -1417 147 -46 3 -85 9 -88 14 -14 23 209 196
335 260 160 80 260 100 500 100 216 0 260 10 332 78 89 83 170 284 202 505 44
291 -18 583 -171 815 -183 276 -534 447 -772 376 -29 -8 -59 -13 -65 -11 -10
4 -8 34 5 134 10 70 23 200 29 287 14 209 5 244 -84 331 -301 296 -1483 534
-3041 615 -500 26 -1227 36 -1685 23z m5094 -1702 c192 -68 348 -251 407 -476
29 -110 29 -298 1 -405 -46 -172 -93 -256 -166 -294 -34 -17 -61 -20 -190 -22
-169 -3 -229 -15 -333 -68 -89 -45 -176 -109 -277 -206 -89 -85 -118 -102
-154 -89 -56 21 -86 190 -71 397 13 178 25 222 94 365 81 169 141 316 204 501
54 158 79 198 162 259 94 69 200 82 323 38z m-1083 -1558 c0 -60 4 -134 8
-166 5 -37 3 -61 -3 -66 -6 -4 -75 -6 -154 -3 -113 4 -145 8 -149 19 -4 9 25
46 79 101 46 48 111 117 143 155 31 37 61 67 66 67 5 0 9 -48 10 -107z"/>
</g>
</svg>
